<svg style="position: absolute; width: 0; height: 0; overflow: hidden;" version="1.1" xmlns="http://www.w3.org/2000/svg" xmlns:xlink="http://www.w3.org/1999/xlink">
<defs>
<symbol id="icon-vans-logo" viewBox="0 0 92 32">
<title>vans-logo</title>
<path d="M88.986 15.236h-5.268c-0.511-1.293-1.081-2.303-4.035-2.303-2.040 0-2.908 0.84-2.908 1.684 0 0.92 0.726 1.698 2.975 2.197l4.773 1.273c3.123 0.835 4.639 3.314 4.639 5.933 0 1.457-0.315 3.218-1.699 4.658-1.032 1.076-2.597 2.497-7.78 2.497-7.131 0-9.473-4.507-9.473-7.23h5.551c0.545 1.989 1.909 2.745 4.612 2.745 1.874 0 3.481-0.668 3.481-2.1 0-1.363-1.165-1.875-2.668-2.286l-3.771-1.017c-1.818-0.553-3.338-0.996-4.411-1.906-2.809-2.38-2.605-6.679 0.451-8.914 1.691-1.236 3.425-1.882 6.177-1.882 3.232 0 5.078 0.923 6.532 1.924 1.289 0.888 2.821 3.028 2.821 4.727zM0 0c0.043 0.189 11.028 30.916 11.028 30.916h6.554l10.095-25.568h62.697l0.477-5.348h-67.993l-8.378 21.2-7.543-21.2h-6.938zM54.227 19.864l8.184 11.053h5.122v-21.86h-5.911v11.889l-7.424-11.889h-5.659v21.86h5.688v-11.053zM91.086 29.781c0-0.636-0.507-1.159-1.158-1.159s-1.166 0.53-1.166 1.165c0 0.636 0.508 1.159 1.159 1.159 0.653 0 1.165-0.53 1.165-1.165zM90.952 29.781c0 0.571-0.443 1.037-1.032 1.037-0.583 0-1.023-0.459-1.023-1.031s0.443-1.037 1.031-1.037c0.584 0 1.024 0.459 1.024 1.031zM90.478 29.54c0-0.257-0.188-0.408-0.483-0.408h-0.549v1.235h0.273v-0.397h0.215l0.263 0.397h0.317l-0.301-0.443c0.157-0.057 0.265-0.183 0.265-0.385zM90.202 29.556c0 0.106-0.073 0.18-0.211 0.18h-0.272v-0.363h0.266c0.135 0 0.217 0.061 0.217 0.183zM22.984 30.916h6.288l1.174-3.42h8.323l1.204 3.42h6.19l-7.922-21.86h-6.66l-8.597 21.86zM32.202 23.542l2.435-7.267 2.404 7.267h-4.84z"></path>
</symbol>
<symbol id="icon-logo-right" viewBox="0 0 72 32">
<title>logo-right</title>
<path d="M66.192 23.559c0.642 0 1.119-0.112 1.434-0.336s0.472-0.553 0.472-0.988c0-0.448-0.167-0.799-0.5-1.055s-0.841-0.384-1.521-0.384c-0.654 0-1.152 0.128-1.492 0.384s-0.51 0.614-0.51 1.074c0 0.435 0.147 0.761 0.443 0.978s0.757 0.326 1.386 0.326h0.289zM67.655 28.442c0.398-0.237 0.597-0.604 0.597-1.103 0-0.473-0.189-0.815-0.568-1.026s-0.889-0.323-1.53-0.336h-0.289c-0.616 0-1.1 0.128-1.453 0.384s-0.529 0.595-0.529 1.017c0 0.486 0.192 0.844 0.577 1.074s0.911 0.345 1.578 0.345c0.68 0 1.219-0.118 1.617-0.355zM61.717 30.974c-0.982-0.684-1.472-1.698-1.472-3.041 0-0.754 0.183-1.403 0.549-1.947s0.869-0.956 1.511-1.237c-0.565-0.243-0.991-0.604-1.28-1.084s-0.433-1.103-0.433-1.87c0-1.253 0.484-2.244 1.453-2.973s2.307-1.093 4.013-1.093c1.719 0 3.070 0.361 4.052 1.084s1.472 1.711 1.472 2.964c0 0.742-0.151 1.356-0.452 1.842s-0.735 0.851-1.299 1.093c0.616 0.256 1.1 0.649 1.453 1.18s0.529 1.212 0.529 2.043c0 1.279-0.5 2.276-1.501 2.993s-2.438 1.074-4.312 1.074c-1.874 0-3.301-0.342-4.283-1.026z"></path>
<path d="M50.629 31.85v-3.354h2.632v-5.648h-2.060v-2.564c0.737-0.077 1.316-0.296 1.736-0.655s0.731-0.893 0.935-1.6h2.842v10.467h2.479v3.354h-8.563z"></path>
<path d="M45.718 28.011c0.342-0.555 0.513-1.413 0.513-2.573v-1.11c0-1.148-0.168-2.009-0.503-2.583s-0.883-0.861-1.643-0.861c-0.773 0-1.324 0.29-1.653 0.87s-0.494 1.438-0.494 2.573v1.11c0 1.122 0.164 1.971 0.494 2.545s0.88 0.861 1.653 0.861c0.747 0 1.292-0.277 1.634-0.832zM39.829 30.412c-1.013-1.059-1.52-2.666-1.52-4.821v-1.416c0-2.143 0.519-3.753 1.558-4.831s2.444-1.617 4.217-1.617c0.57 0 1.105 0.061 1.605 0.182s0.965 0.297 1.396 0.526c0.874 0.485 1.558 1.202 2.051 2.152s0.741 2.14 0.741 3.568v1.435c0 0.714-0.060 1.371-0.18 1.971s-0.307 1.135-0.56 1.607c-0.481 0.944-1.159 1.652-2.032 2.124s-1.881 0.708-3.020 0.708c-1.824 0-3.242-0.529-4.255-1.588z"></path>
<path d="M25.991 31.7v-2.546c0-0.689 0.132-1.282 0.396-1.78s0.614-0.919 1.052-1.263c0.437-0.345 0.923-0.641 1.457-0.89s1.064-0.475 1.592-0.679c0.283-0.115 0.553-0.223 0.81-0.325s0.508-0.204 0.752-0.306c0.489-0.217 0.881-0.456 1.177-0.718s0.444-0.577 0.444-0.947c0-0.51-0.158-0.893-0.473-1.148s-0.794-0.383-1.437-0.383c-0.721 0-1.244 0.179-1.572 0.536s-0.492 0.836-0.492 1.435v0.459h-3.608v-0.651c0-1.531 0.473-2.708 1.418-3.531s2.363-1.235 4.254-1.235c1.826 0 3.2 0.396 4.119 1.187s1.38 1.831 1.38 3.12c0 0.74-0.138 1.372-0.415 1.895s-0.64 0.964-1.090 1.321c-0.45 0.37-0.942 0.679-1.476 0.928s-1.058 0.469-1.572 0.66c-0.669 0.255-1.251 0.504-1.746 0.746s-0.775 0.549-0.839 0.919h7.062v3.196h-11.19z"></path>
<path d="M70.489 7.741v6.381h-0.865v-6.381h-0.967v-0.818h0.967v-0.516c0-0.738 0.131-1.24 0.394-1.504s0.695-0.396 1.298-0.396h0.496v0.793h-0.382c-0.127 0-0.24 0.006-0.337 0.019s-0.18 0.036-0.248 0.069c-0.136 0.059-0.229 0.17-0.28 0.333s-0.076 0.409-0.076 0.736v0.466h1.323v0.818h-1.323z"></path>
<path d="M66.794 13.162c0.235-0.297 0.353-0.726 0.353-1.286v-2.355c0-0.603-0.118-1.055-0.353-1.356s-0.593-0.452-1.073-0.452c-0.471 0-0.825 0.151-1.060 0.452s-0.353 0.753-0.353 1.356v2.355c0 0.552 0.116 0.978 0.347 1.28s0.587 0.452 1.067 0.452 0.837-0.148 1.073-0.446zM63.999 13.799c-0.4-0.416-0.599-1.048-0.599-1.897v-2.394c0-0.874 0.208-1.526 0.625-1.954s0.982-0.643 1.698-0.643c0.724 0 1.294 0.216 1.71 0.649s0.625 1.082 0.625 1.948v2.394c0 0.84-0.208 1.471-0.625 1.891s-0.987 0.63-1.71 0.63c-0.749 0-1.323-0.208-1.723-0.624z"></path>
<path d="M52.976 14.129c-0.572-0.096-1.064-0.245-1.476-0.449-0.836-0.382-1.437-0.946-1.804-1.691s-0.557-1.653-0.569-2.723v-0.019h3.685v0.057c0.013 0.65 0.19 1.143 0.531 1.481s0.891 0.506 1.65 0.506c0.643 0 1.109-0.13 1.399-0.392s0.434-0.589 0.434-0.984c0-0.178-0.032-0.337-0.096-0.478s-0.167-0.261-0.309-0.363c-0.283-0.204-0.653-0.363-1.109-0.478s-0.949-0.229-1.476-0.344c-0.515-0.115-1.032-0.255-1.553-0.42s-0.994-0.388-1.418-0.669c-0.437-0.293-0.785-0.678-1.042-1.156s-0.386-1.086-0.386-1.825c0-0.408 0.048-0.79 0.145-1.146s0.247-0.694 0.453-1.013c0.386-0.624 0.974-1.118 1.765-1.481s1.772-0.545 2.942-0.545c1.762 0 3.1 0.385 4.013 1.156s1.376 1.882 1.389 3.334v0.019h-3.531v-0.019c-0.026-0.573-0.19-0.996-0.492-1.271s-0.788-0.411-1.457-0.411c-0.605 0-1.032 0.124-1.283 0.373s-0.376 0.538-0.376 0.869c0 0.166 0.032 0.315 0.096 0.449s0.167 0.245 0.309 0.334c0.257 0.179 0.608 0.322 1.051 0.43s0.923 0.22 1.437 0.334c0.527 0.115 1.054 0.258 1.582 0.43s1.010 0.411 1.447 0.716c0.437 0.293 0.791 0.685 1.061 1.175s0.405 1.111 0.405 1.863c0 1.337-0.463 2.42-1.389 3.248s-2.296 1.242-4.11 1.242c-0.708 0-1.348-0.048-1.92-0.143z"></path>
<path d="M40.807 14.129c-0.572-0.096-1.064-0.245-1.476-0.449-0.836-0.382-1.437-0.946-1.804-1.691s-0.557-1.653-0.569-2.723v-0.019h3.685v0.057c0.013 0.65 0.19 1.143 0.531 1.481s0.891 0.506 1.65 0.506c0.643 0 1.109-0.13 1.399-0.392s0.434-0.589 0.434-0.984c0-0.178-0.032-0.337-0.096-0.478s-0.167-0.261-0.309-0.363c-0.283-0.204-0.653-0.363-1.109-0.478s-0.949-0.229-1.476-0.344c-0.515-0.115-1.032-0.255-1.553-0.42s-0.994-0.388-1.418-0.669c-0.437-0.293-0.785-0.678-1.042-1.156s-0.386-1.086-0.386-1.825c0-0.408 0.048-0.79 0.145-1.146s0.247-0.694 0.453-1.013c0.386-0.624 0.974-1.118 1.765-1.481s1.772-0.545 2.942-0.545c1.762 0 3.1 0.385 4.013 1.156s1.376 1.882 1.389 3.334v0.019h-3.531v-0.019c-0.026-0.573-0.19-0.996-0.492-1.271s-0.788-0.411-1.457-0.411c-0.605 0-1.032 0.124-1.283 0.373s-0.376 0.538-0.376 0.869c0 0.166 0.032 0.315 0.096 0.449s0.167 0.245 0.309 0.334c0.257 0.179 0.608 0.322 1.051 0.43s0.923 0.22 1.437 0.334c0.527 0.115 1.054 0.258 1.582 0.43s1.010 0.411 1.447 0.716c0.437 0.293 0.791 0.685 1.061 1.175s0.405 1.111 0.405 1.863c0 1.337-0.463 2.42-1.389 3.248s-2.296 1.242-4.11 1.242c-0.708 0-1.348-0.048-1.92-0.143z"></path>
<path d="M30.149 4.349l-1.386 4.492h2.81l-1.424-4.492zM32.497 11.693h-4.599l-0.751 2.429h-3.56l4.792-13.822h3.579l4.849 13.822h-3.541l-0.77-2.429z"></path>
<path d="M13.521 14.122v-13.822h3.639v10.371h5.826v3.451z"></path>
<path d="M1.498 12.751c-0.999-1.014-1.498-2.573-1.498-4.678v-1.741c0-2.13 0.537-3.718 1.612-4.764s2.522-1.569 4.341-1.569c1.781 0 3.18 0.44 4.198 1.32s1.571 2.219 1.66 4.018v0.421h-3.683v-0.21c-0.051-0.791-0.242-1.39-0.572-1.798s-0.865-0.612-1.603-0.612c-0.801 0-1.39 0.281-1.765 0.842s-0.563 1.422-0.563 2.583v1.186c0 1.084 0.194 1.901 0.582 2.449s0.97 0.823 1.746 0.823c0.725 0 1.259-0.213 1.603-0.641s0.541-1.049 0.591-1.865v-0.249h3.721v0.344c-0.089 1.926-0.642 3.351-1.66 4.276s-2.468 1.387-4.351 1.387c-1.908 0-3.362-0.507-4.36-1.521z"></path>
</symbol>
<symbol id="icon-logo-left" viewBox="0 0 60 32">
<title>logo-left</title>
<path d="M52.293 23.498c0.633 0 1.105-0.111 1.415-0.332s0.465-0.547 0.465-0.978c0-0.443-0.165-0.791-0.494-1.044s-0.83-0.38-1.501-0.38c-0.646 0-1.137 0.127-1.472 0.38s-0.503 0.607-0.503 1.063c0 0.43 0.145 0.753 0.437 0.968s0.747 0.323 1.368 0.323h0.285zM53.737 28.329c0.392-0.234 0.589-0.598 0.589-1.091 0-0.468-0.187-0.807-0.56-1.015s-0.877-0.319-1.51-0.332h-0.285c-0.608 0-1.086 0.127-1.434 0.38s-0.522 0.588-0.522 1.006c0 0.481 0.19 0.835 0.57 1.063s0.899 0.342 1.558 0.342c0.671 0 1.203-0.117 1.596-0.351zM47.876 30.834c-0.969-0.677-1.453-1.68-1.453-3.009 0-0.747 0.18-1.389 0.541-1.927s0.858-0.946 1.491-1.224c-0.557-0.24-0.978-0.598-1.263-1.072s-0.427-1.091-0.427-1.851c0-1.24 0.478-2.221 1.434-2.942s2.277-1.082 3.961-1.082c1.697 0 3.030 0.358 3.999 1.072s1.453 1.693 1.453 2.933c0 0.734-0.149 1.341-0.446 1.822s-0.725 0.842-1.282 1.082c0.608 0.253 1.086 0.642 1.434 1.167s0.522 1.199 0.522 2.021c0 1.265-0.494 2.253-1.482 2.961s-2.407 1.063-4.256 1.063c-1.849 0-3.258-0.338-4.227-1.015z"></path>
<path d="M36.958 31.549v-3.318h2.632v-5.587h-2.060v-2.536c0.737-0.076 1.316-0.292 1.736-0.648s0.731-0.883 0.935-1.583h2.842v10.354h2.479v3.318h-8.563z"></path>
<path d="M32.143 27.922c0.346-0.554 0.519-1.41 0.519-2.569v-1.108c0-1.146-0.17-2.006-0.509-2.579s-0.893-0.86-1.662-0.86c-0.781 0-1.338 0.29-1.671 0.869s-0.499 1.436-0.499 2.569v1.108c0 1.121 0.166 1.968 0.499 2.541s0.89 0.86 1.671 0.86c0.756 0 1.306-0.277 1.652-0.831zM26.188 30.319c-1.025-1.057-1.537-2.662-1.537-4.814v-1.414c0-2.14 0.525-3.747 1.575-4.823s2.471-1.614 4.265-1.614c0.576 0 1.117 0.061 1.623 0.181s0.976 0.296 1.412 0.525c0.884 0.484 1.575 1.2 2.075 2.149s0.749 2.137 0.749 3.563v1.433c0 0.713-0.061 1.369-0.182 1.968s-0.311 1.134-0.567 1.605c-0.487 0.943-1.172 1.649-2.056 2.12s-1.902 0.707-3.054 0.707c-1.844 0-3.279-0.528-4.303-1.586z"></path>
<path d="M12.469 31.7v-2.546c0-0.689 0.13-1.282 0.39-1.78s0.606-0.919 1.037-1.263c0.431-0.345 0.91-0.641 1.437-0.89s1.050-0.475 1.571-0.679c0.279-0.115 0.546-0.223 0.8-0.325s0.501-0.204 0.742-0.306c0.482-0.217 0.869-0.456 1.161-0.718s0.438-0.577 0.438-0.947c0-0.51-0.156-0.893-0.466-1.148s-0.784-0.383-1.418-0.383c-0.711 0-1.228 0.179-1.551 0.536s-0.485 0.836-0.485 1.435v0.459h-3.56v-0.651c0-1.531 0.466-2.708 1.399-3.531s2.332-1.235 4.198-1.235c1.802 0 3.157 0.396 4.064 1.187s1.361 1.831 1.361 3.12c0 0.74-0.137 1.372-0.409 1.895s-0.632 0.964-1.076 1.321c-0.444 0.37-0.93 0.679-1.456 0.928s-1.044 0.469-1.551 0.66c-0.66 0.255-1.234 0.504-1.723 0.746s-0.765 0.549-0.828 0.919h6.967v3.196h-11.041z"></path>
<path d="M7.454 21.062v6.281h-0.824v-6.281h-0.921v-0.805h0.921v-0.508c0-0.727 0.125-1.22 0.376-1.48s0.662-0.39 1.236-0.39h0.473v0.78h-0.363c-0.121 0-0.228 0.006-0.321 0.019s-0.172 0.035-0.236 0.068c-0.129 0.058-0.218 0.167-0.267 0.328s-0.073 0.403-0.073 0.725v0.458h1.26v0.805h-1.26z"></path>
<path d="M3.736 26.258c0.228-0.291 0.342-0.711 0.342-1.26v-2.308c0-0.591-0.114-1.034-0.342-1.329s-0.574-0.443-1.038-0.443c-0.456 0-0.798 0.148-1.026 0.443s-0.342 0.738-0.342 1.329v2.308c0 0.541 0.112 0.959 0.336 1.254s0.568 0.443 1.032 0.443 0.81-0.145 1.038-0.437zM1.031 26.882c-0.387-0.407-0.58-1.027-0.58-1.859v-2.346c0-0.857 0.202-1.495 0.605-1.915s0.951-0.63 1.643-0.63c0.7 0 1.252 0.212 1.655 0.636s0.605 1.061 0.605 1.909v2.346c0 0.823-0.202 1.441-0.605 1.853s-0.955 0.618-1.655 0.618c-0.725 0-1.281-0.204-1.667-0.611z"></path>
<path d="M40.455 14.279c-0.565-0.096-1.050-0.245-1.456-0.449-0.825-0.382-1.418-0.946-1.78-1.691s-0.549-1.653-0.562-2.723v-0.019h3.636v0.057c0.012 0.65 0.187 1.143 0.523 1.481s0.879 0.506 1.628 0.506c0.635 0 1.095-0.13 1.38-0.392s0.428-0.589 0.428-0.984c0-0.178-0.032-0.337-0.095-0.478s-0.165-0.261-0.305-0.363c-0.279-0.204-0.644-0.363-1.095-0.478s-0.936-0.229-1.456-0.344c-0.508-0.115-1.018-0.255-1.532-0.42s-0.98-0.388-1.399-0.669c-0.432-0.293-0.774-0.678-1.028-1.156s-0.381-1.086-0.381-1.825c0-0.408 0.048-0.79 0.143-1.146s0.244-0.694 0.447-1.013c0.381-0.624 0.961-1.118 1.742-1.481s1.748-0.545 2.903-0.545c1.739 0 3.058 0.385 3.96 1.156s1.358 1.882 1.371 3.334v0.019h-3.484v-0.019c-0.026-0.573-0.187-0.996-0.485-1.271s-0.778-0.411-1.437-0.411c-0.597 0-1.018 0.124-1.266 0.373s-0.371 0.538-0.371 0.869c0 0.166 0.032 0.315 0.095 0.449s0.165 0.245 0.305 0.334c0.254 0.179 0.6 0.322 1.038 0.43s0.911 0.22 1.418 0.334c0.52 0.115 1.040 0.258 1.561 0.43s0.996 0.411 1.428 0.716c0.431 0.293 0.781 0.685 1.047 1.175s0.4 1.111 0.4 1.863c0 1.337-0.457 2.42-1.371 3.248s-2.265 1.242-4.055 1.242c-0.698 0-1.33-0.048-1.894-0.143z"></path>
<path d="M52.624 14.279c-0.565-0.096-1.050-0.245-1.456-0.449-0.825-0.382-1.418-0.946-1.78-1.691s-0.549-1.653-0.562-2.723v-0.019h3.636v0.057c0.012 0.65 0.187 1.143 0.523 1.481s0.879 0.506 1.628 0.506c0.635 0 1.095-0.13 1.38-0.392s0.428-0.589 0.428-0.984c0-0.178-0.032-0.337-0.095-0.478s-0.165-0.261-0.305-0.363c-0.279-0.204-0.644-0.363-1.095-0.478s-0.936-0.229-1.456-0.344c-0.508-0.115-1.018-0.255-1.532-0.42s-0.98-0.388-1.399-0.669c-0.432-0.293-0.774-0.678-1.028-1.156s-0.381-1.086-0.381-1.825c0-0.408 0.048-0.79 0.143-1.146s0.244-0.694 0.447-1.013c0.381-0.624 0.961-1.118 1.742-1.481s1.748-0.545 2.903-0.545c1.739 0 3.058 0.385 3.96 1.156s1.358 1.882 1.371 3.334v0.019h-3.484v-0.019c-0.026-0.573-0.187-0.996-0.485-1.271s-0.778-0.411-1.437-0.411c-0.597 0-1.018 0.124-1.266 0.373s-0.371 0.538-0.371 0.869c0 0.166 0.032 0.315 0.095 0.449s0.165 0.245 0.305 0.334c0.254 0.179 0.6 0.322 1.038 0.43s0.911 0.22 1.418 0.334c0.52 0.115 1.040 0.258 1.561 0.43s0.996 0.411 1.428 0.716c0.431 0.293 0.781 0.685 1.047 1.175s0.4 1.111 0.4 1.863c0 1.337-0.457 2.42-1.371 3.248s-2.265 1.242-4.055 1.242c-0.698 0-1.33-0.048-1.894-0.143z"></path>
<path d="M29.924 4.455l-1.37 4.443h2.778l-1.408-4.443zM32.245 11.72h-4.547l-0.742 2.402h-3.52l4.737-13.671h3.539l4.794 13.671h-3.501l-0.761-2.402z"></path>
<path d="M13.371 14.122v-13.671h3.581v10.258h5.733v3.413z"></path>
<path d="M1.491 12.808c-0.994-1.012-1.491-2.569-1.491-4.671v-1.738c0-2.127 0.535-3.712 1.605-4.757s2.51-1.566 4.32-1.566c1.772 0 3.165 0.439 4.178 1.318s1.563 2.216 1.652 4.012v0.42h-3.665v-0.21c-0.051-0.79-0.241-1.388-0.57-1.796s-0.861-0.611-1.595-0.611c-0.798 0-1.383 0.28-1.757 0.841s-0.56 1.42-0.56 2.579v1.184c0 1.083 0.193 1.898 0.579 2.445s0.965 0.821 1.738 0.821c0.722 0 1.253-0.213 1.595-0.64s0.538-1.047 0.589-1.863v-0.248h3.703v0.344c-0.089 1.923-0.639 3.346-1.652 4.269s-2.456 1.385-4.33 1.385c-1.899 0-3.345-0.506-4.339-1.519z"></path>
</symbol>
<symbol id="icon-envelope" viewBox="0 0 32 32">
<title>envelope</title>
<path d="M29.714 26.857v-13.714c-0.375 0.429-0.786 0.821-1.232 1.179-2.554 1.964-5.125 3.964-7.607 6.036-1.339 1.125-3 2.5-4.857 2.5h-0.036c-1.857 0-3.518-1.375-4.857-2.5-2.482-2.071-5.054-4.071-7.607-6.036-0.446-0.357-0.857-0.75-1.232-1.179v13.714c0 0.304 0.268 0.571 0.571 0.571h26.286c0.304 0 0.571-0.268 0.571-0.571zM29.714 8.089c0-0.446 0.107-1.232-0.571-1.232h-26.286c-0.304 0-0.571 0.268-0.571 0.571 0 2.036 1.018 3.804 2.625 5.071 2.393 1.875 4.786 3.768 7.161 5.661 0.946 0.768 2.661 2.411 3.911 2.411h0.036c1.25 0 2.964-1.643 3.911-2.411 2.375-1.893 4.768-3.786 7.161-5.661 1.161-0.911 2.625-2.893 2.625-4.411zM32 7.429v19.429c0 1.571-1.286 2.857-2.857 2.857h-26.286c-1.571 0-2.857-1.286-2.857-2.857v-19.429c0-1.571 1.286-2.857 2.857-2.857h26.286c1.571 0 2.857 1.286 2.857 2.857z"></path>
</symbol>
<symbol id="icon-twitter" viewBox="0 0 30 32">
<title>twitter</title>
<path d="M28.929 7.286c-0.786 1.143-1.768 2.161-2.893 2.982 0.018 0.25 0.018 0.5 0.018 0.75 0 7.625-5.804 16.411-16.411 16.411-3.268 0-6.304-0.946-8.857-2.589 0.464 0.054 0.911 0.071 1.393 0.071 2.696 0 5.179-0.911 7.161-2.464-2.536-0.054-4.661-1.714-5.393-4 0.357 0.054 0.714 0.089 1.089 0.089 0.518 0 1.036-0.071 1.518-0.196-2.643-0.536-4.625-2.857-4.625-5.661v-0.071c0.768 0.429 1.661 0.696 2.607 0.732-1.554-1.036-2.571-2.804-2.571-4.804 0-1.071 0.286-2.054 0.786-2.911 2.839 3.5 7.107 5.786 11.893 6.036-0.089-0.429-0.143-0.875-0.143-1.321 0-3.179 2.571-5.768 5.768-5.768 1.661 0 3.161 0.696 4.214 1.821 1.304-0.25 2.554-0.732 3.661-1.393-0.429 1.339-1.339 2.464-2.536 3.179 1.161-0.125 2.286-0.446 3.321-0.893z"></path>
</symbol>
<symbol id="icon-facebook" viewBox="0 0 19 32">
<title>facebook</title>
<path d="M17.125 0.214v4.714h-2.804c-2.196 0-2.607 1.054-2.607 2.571v3.375h5.232l-0.696 5.286h-4.536v13.554h-5.464v-13.554h-4.554v-5.286h4.554v-3.893c0-4.518 2.768-6.982 6.804-6.982 1.929 0 3.589 0.143 4.071 0.214z"></path>
</symbol>
<symbol id="icon-vice-logo" viewBox="0 0 97 32">
<title>vice-logo</title>
<path d="M63.437 6.667c0.72 1.015 2.293 0.971 3.23 1.715-1.264 0.402-2.855 0.4-4 0.952 0.27-0.874 0.512-1.78 0.77-2.667zM55.153 10.667c-0.463 1.946-1.433 4.173-1.977 6.33 2.994 0.040 6.152-0.522 9.23-0.693 0.416-0.513 0.622-1.22 0.849-1.908 0.617 0.805 1.052 2.309 0.471 3.468-4.676-0.060-8.037 3.465-12.623 3.468-2.054 0.003-3.8-1.085-2.826-3.209 1.373-2.996 4.779-5.088 6.876-7.458zM96.779 5.183c0.105 0.414-0.359 0.811-0.6 1.115-2.027 2.536-4.273 5.536-6.974 7.461 0.195 1.009 0.092 2.347-0.261 3.086 0.707 0.9 1.458 1.752 1.895 2.917-0.575 3.042-1.912 5.403-4.045 6.946-2.084 1.504-4.9 2.097-8.095 2.83-6.176 1.418-16.338 2.817-20.92-0.859-4.961 2.899-14.989 3.282-19.629-0.171-3.299 4.157-16.311 3.793-14.376-4.459-2.412 1.82-5.98 4.329-9.385 5.745-3.948 1.64-11.424 1.456-10.676-4.116 0.089-0.663 0.37-1.039 0.689-1.629-1.155-2.008-1.885-3.401-2.583-5.146-0.669-1.674-1.69-3.578-1.808-5.917-0.25-4.971 3.64-8.124 7.491-9.604 1.966-0.758 3.564-1.85 5.51-2.401 2.909-0.825 5.403 0.769 5.595 3.431 3.383-1 7.501-2.104 11.968-1.459 3.556-2.754 10.502-1.052 15.066 0.257 1.032 0.296 2.422 1.062 3.185 1.030 0.648-0.027 1.817-0.901 2.495-1.201 3.203-1.414 7.39-2.919 11.968-2.143 0.866 0.146 1.66 0.603 2.582 0.686 0.627 0.056 1.392-0.14 2.067-0.171 10.697-0.52 19.604 2.34 28.84 3.772zM66.821 4.841c-1.093 0.132-1.869 1.321-2.583 1.715 0.052-0.005 0.101-0.014 0.084-0.086 0.131-0.586 0.381-1.052 0.431-1.715-5.729-2.010-11.304 0.929-15.409 3.173-3.282 1.794-6.21 3.9-8.265 6.002 0.743-1.261 1.531-2.508 2.412-3.686 0.891-1.197 1.885-2.279 2.669-3.345-1.716-0.447-3.436-0.92-5.167-1.286-2.46-0.522-5.882-1.386-7.92-0.258-0.59 0.326-1.072 1.129-1.636 1.201-0.466 0.060-1.234-0.279-1.809-0.343-2.104-0.232-4.039-0.038-5.94 0.343-1.78 0.355-5.545 0.986-6.027 2.657-0.309 1.073 0.38 2.113 0.259 3.175-0.118 1.044-1.124 2.425-1.636 3.258-0.625 1.021-1.262 1.926-2.325 2.4-0.644-3.194 0.057-6.036 0.604-8.745 0.338-1.67 1.017-3.379 0.431-5.060-1.642-0.227-3.025 1.067-4.65 1.714-3.054 1.218-6.455 2.326-6.887 5.832-0.243 1.973 0.501 3.229 1.033 4.63 1.139 3.012 2.548 5.562 4.219 7.89-0.455 0.834-1.529 1.051-1.637 2.228 0.486 0.685 1.498 0.775 2.497 0.773 2.889-0.006 5.257-1.454 7.403-2.659 4.673-2.617 7.811-6.649 11.107-10.461 0.579-0.67 1.056-1.478 1.809-1.886 0.741 3.388-0.7 5.198-1.724 7.975-0.394 1.069-1.639 4.416-1.032 6.001 0.665 1.744 6.332 1.82 7.835 0.689 0.757-0.569 1.058-1.857 1.465-2.658 0.518-1.030 0.968-1.919 1.376-2.83 0.023 3.756 2.825 4.859 5.854 5.659 6.439 1.695 12.931-1.333 16.443-3.429-0.439 2.783 0.646 3.062 2.842 3.516 5.677 1.168 11.395-0.179 16.013-1.288 4.233-1.016 7.638-1.733 8.265-5.918-0.678-0.584-2.371-0.512-3.53-0.341-3.414 0.497-6.72 2.218-11.278 1.885-0.831-0.060-2.628-0.349-2.757-0.856-0.2-0.792 1.222-1.346 2.413-1.544 3.417-0.576 8.355 0.005 11.104-1.031 1.321-0.496 2.914-1.93 2.754-3.516-0.105-1.071-1.509-1.632-2.841-1.713-3.768-0.234-6.46 1.956-10.415 1.2 0.495-0.623 0.583-1.647 1.204-2.145 2.891-0.060 5.701 0.512 8.437 0.343 3.805-0.237 5.95-1.833 7.75-3.945 0.192-0.227 0.675-0.472 0.516-0.857-6.608-1.001-15.615-3.654-23.762-2.659z"></path>
</symbol>
</defs>
</svg>
