<svg style="position: absolute; width: 0; height: 0; overflow: hidden;" version="1.1" xmlns="http://www.w3.org/2000/svg" xmlns:xlink="http://www.w3.org/1999/xlink">
<defs>
<symbol id="icon-circle" viewBox="0 0 32 32">
<title>circle</title>
<path d="M16 31.96c-8.815 0-15.96-7.146-15.96-15.96s7.146-15.96 15.96-15.96c8.815 0 15.96 7.146 15.96 15.96s-7.146 15.96-15.96 15.96zM16 31.564c8.596 0 15.564-6.968 15.564-15.564s-6.968-15.564-15.564-15.564c-8.596 0-15.564 6.968-15.564 15.564s6.968 15.564 15.564 15.564z"></path>
</symbol>
<symbol id="icon-rectangle" viewBox="0 0 24 32">
<title>rectangle</title>
<path d="M0.437 26.734l8.366 4.83 15.151-26.242-8.366-4.83-15.151 26.242zM24.384 5.207l-15.466 26.788-8.912-5.146 15.466-26.788 8.912 5.146z"></path>
</symbol>
<symbol id="icon-diagram" viewBox="0 0 32 32">
<title>diagram</title>
<path d="M6.68 3.865c4.626-3.882 11.044-4.617 16.387-2.027l0.115-0.237c-5.436-2.635-11.965-1.887-16.671 2.062l0.169 0.201z"></path>
<path d="M12.293 29.971c-2.87-0.826-5.44-2.482-7.404-4.823-2.458-2.929-3.686-6.6-3.537-10.336l-0.263-0.010c-0.151 3.801 1.098 7.536 3.598 10.516 1.998 2.381 4.613 4.066 7.533 4.907l0.073-0.253z"></path>
<path d="M30.64 10.332c1.93 5.494 0.523 11.687-3.692 15.826l0.184 0.188c4.288-4.211 5.719-10.511 3.756-16.1l-0.248 0.087z"></path>
<path d="M24.649 2.018c0.26 0.155 0.424 0.102 0.536-0.080 0.114-0.183 0.087-0.35-0.173-0.505l-0.482-0.287-0.363 0.585 0.482 0.287zM25.155 1.268c0.342 0.204 0.422 0.493 0.236 0.794-0.125 0.202-0.299 0.296-0.507 0.273l-0.202 0.895-0.211-0.126 0.188-0.837c-0.046-0.021-0.093-0.046-0.136-0.071l-0.471-0.28-0.426 0.686-0.204-0.121 1.017-1.638 0.715 0.426z"></path>
<path d="M25.478 2.957l0.623 0.472c0.098-0.148 0.086-0.347-0.096-0.485-0.195-0.148-0.395-0.109-0.527 0.013v0zM26.169 3.727l-0.822-0.623c-0.197 0.266-0.203 0.511 0.019 0.68 0.152 0.115 0.293 0.118 0.406 0.038l0.184 0.139c-0.18 0.161-0.448 0.187-0.716-0.016-0.336-0.255-0.33-0.648-0.067-0.986s0.634-0.42 0.961-0.172c0.321 0.243 0.287 0.602 0.083 0.877l-0.049 0.063z"></path>
<path d="M26.789 3.263l0.171 0.157-0.51 1.092 0.080 0.073 1.047-0.597 0.173 0.159-1.259 0.697-0.308-0.284z"></path>
<path d="M27.786 4.858l0.502 0.559c0.116-0.121 0.138-0.311-0.009-0.474-0.157-0.175-0.35-0.175-0.493-0.085v0zM28.302 5.71l-0.662-0.737c-0.228 0.214-0.274 0.443-0.095 0.643 0.122 0.136 0.253 0.165 0.372 0.11l0.148 0.165c-0.194 0.119-0.448 0.093-0.664-0.147-0.271-0.302-0.199-0.67 0.101-0.94s0.659-0.279 0.923 0.014c0.259 0.288 0.167 0.619-0.068 0.841l-0.056 0.050z"></path>
<path d="M28.413 7.060l0.669-0.494c0.206-0.152 0.243-0.317 0.114-0.494-0.136-0.188-0.402-0.184-0.599-0.038l-0.605 0.447-0.129-0.177 1.116-0.824 0.124 0.171-0.12 0.088 0.033 0.046c0.129-0.005 0.275 0.066 0.378 0.207 0.188 0.259 0.122 0.525-0.146 0.723l-0.709 0.523-0.129-0.177z"></path>
<path d="M30.054 7.084l-0.669 0.389c-0.206 0.12-0.252 0.275-0.14 0.465 0.117 0.199 0.367 0.236 0.569 0.118l0.605-0.352 0.111 0.19-1.117 0.65-0.107-0.183 0.12-0.070-0.029-0.049c-0.123-0.012-0.259-0.101-0.348-0.253-0.163-0.277-0.083-0.527 0.185-0.683l0.709-0.413 0.111 0.19z"></path>
<path d="M30.344 8.575l0.322 0.716c0.154-0.086 0.237-0.27 0.143-0.479-0.101-0.224-0.293-0.283-0.465-0.237v0zM30.586 9.589l-0.425-0.944c-0.296 0.146-0.415 0.362-0.3 0.617 0.079 0.175 0.2 0.243 0.336 0.225l0.095 0.212c-0.232 0.060-0.477-0.044-0.616-0.351-0.174-0.386 0.015-0.735 0.402-0.914s0.747-0.079 0.917 0.298c0.166 0.369-0.031 0.674-0.337 0.824l-0.072 0.034z"></path>
<path d="M25.925 27.835c-0.261 0.125-0.501 0.127-0.704-0.13-0.187-0.235-0.169-0.591 0.204-0.887 0.345-0.273 0.716-0.267 0.946-0.024l-0.188 0.149c-0.195-0.177-0.427-0.106-0.63 0.054-0.204 0.162-0.285 0.383-0.148 0.555 0.128 0.162 0.282 0.139 0.453 0.058 0.088-0.042 0.254-0.129 0.339-0.17 0.25-0.126 0.485-0.121 0.659 0.097 0.185 0.233 0.144 0.563-0.188 0.826-0.306 0.242-0.632 0.233-0.856 0.018l0.188-0.149c0.155 0.123 0.321 0.125 0.536-0.045 0.177-0.141 0.261-0.34 0.136-0.498-0.115-0.145-0.278-0.091-0.423-0.021-0.072 0.040-0.234 0.12-0.324 0.164z"></path>
<path d="M23.917 27.898l0.427 0.677c0.129 0.204 0.293 0.251 0.483 0.132 0.201-0.126 0.224-0.388 0.098-0.587l-0.386-0.612 0.19-0.119 1.027 1.63-0.19 0.119-0.391-0.621-0.049 0.031c-0.005 0.125-0.089 0.265-0.241 0.361-0.275 0.173-0.534 0.098-0.705-0.173l-0.452-0.718 0.19-0.119z"></path>
<path d="M22.899 29.007l0.053 0.108 0.361-0.182c0.198-0.1 0.247-0.231 0.178-0.372-0.066-0.134-0.208-0.168-0.387-0.078-0.201 0.101-0.297 0.335-0.204 0.523v0zM22.717 28.655l0.052-0.027c0.029-0.129 0.127-0.258 0.298-0.345 0.277-0.14 0.523-0.035 0.622 0.167 0.094 0.191 0.067 0.457-0.267 0.626l-0.392 0.198 0.023 0.047c0.071 0.143 0.205 0.205 0.415 0.099 0.179-0.091 0.236-0.205 0.195-0.313l0.203-0.103c0.091 0.227-0.037 0.451-0.307 0.587-0.303 0.153-0.567 0.108-0.698-0.158l-0.398-0.807 0.191-0.097 0.061 0.125z"></path>
<path d="M21.891 30.207l0.109-0.045c0.259-0.106 0.356-0.327 0.245-0.61l-0.252-0.642 0.22-0.090 0.504 1.285-0.212 0.087-0.060-0.153-0.057 0.023c-0.034 0.106-0.129 0.23-0.318 0.308l-0.098 0.040-0.080-0.204z"></path>
<path d="M21.339 30.081l-0.742 0.22c0.067 0.162 0.238 0.268 0.455 0.204 0.232-0.069 0.313-0.249 0.287-0.423v0zM20.314 30.182l0.979-0.29c-0.109-0.309-0.307-0.455-0.572-0.377-0.181 0.054-0.263 0.163-0.26 0.299l-0.219 0.065c-0.032-0.235 0.099-0.461 0.417-0.556 0.4-0.119 0.721 0.113 0.852 0.516s-0.010 0.743-0.4 0.858c-0.382 0.113-0.659-0.12-0.772-0.44l-0.025-0.075z"></path>
<path d="M19.173 30.301l0.021 0.115 0.385-0.090c0.211-0.050 0.292-0.162 0.264-0.312-0.026-0.142-0.149-0.206-0.341-0.162-0.214 0.050-0.366 0.25-0.329 0.449v0zM19.096 29.927l0.056-0.013c0.061-0.116 0.186-0.215 0.37-0.258 0.295-0.070 0.497 0.086 0.536 0.3 0.037 0.202-0.059 0.448-0.415 0.531l-0.418 0.098 0.009 0.050c0.028 0.152 0.137 0.241 0.361 0.188 0.191-0.045 0.275-0.14 0.265-0.252l0.217-0.051c0.025 0.236-0.154 0.418-0.442 0.486-0.323 0.076-0.558-0.027-0.609-0.309l-0.157-0.854 0.204-0.048 0.024 0.132z"></path>
<path d="M17.562 30.677c0.038 0.297 0.206 0.494 0.47 0.471 0.293-0.026 0.383-0.28 0.35-0.543s-0.185-0.496-0.478-0.47c-0.265 0.023-0.379 0.245-0.342 0.542zM17.34 30.697c-0.050-0.395 0.125-0.721 0.49-0.753 0.209-0.018 0.349 0.055 0.434 0.142l0.058-0.005-0.018-0.143 0.215-0.019 0.245 1.927-0.223 0.020-0.093-0.734-0.058 0.005c-0.059 0.102-0.171 0.195-0.381 0.213-0.364 0.032-0.617-0.249-0.668-0.652z"></path>
<path d="M16.986 31.725l0.012 0.25-0.243 0.004-0.012-0.25 0.243-0.004zM16.666 30.002l0.23-0.004 0.068 1.371-0.23 0.004-0.068-1.371z"></path>
<path d="M16.1 31.868l0.081-1.911 0.226-0.005-0.081 1.911z"></path>
<path d="M15.716 31.694l-0.012 0.241-0.236-0.013 0.012-0.241 0.236 0.013zM15.573 30.017l0.223 0.012-0.067 1.32-0.223-0.012 0.067-1.32z"></path>
<path d="M14.363 31.184l0.026-0.193 0.332 0.027 0.098-0.722c0.018-0.133-0.030-0.206-0.208-0.22l-0.097-0.008 0.027-0.198 0.102 0.008c0.285 0.023 0.441 0.125 0.403 0.404l-0.102 0.754 0.228 0.018-0.026 0.193-0.228-0.018-0.054 0.396-0.222-0.018 0.054-0.396-0.332-0.027z"></path>
<path d="M14.16 29.289l-0.41 0.602 0.306 1.287-0.238-0.039-0.216-0.934-0.065-0.011-0.552 0.809-0.233-0.038 1.184-1.713z"></path>
<path d="M1.822 13.082l0.219 0.019-0.16 1.264-1.843-0.161 0.029-0.232 1.623 0.142z"></path>
<path d="M1.602 11.78c-0.254-0.052-0.52 0.033-0.583 0.318-0.064 0.288 0.144 0.467 0.398 0.52s0.52-0.030 0.583-0.318c0.063-0.285-0.144-0.467-0.398-0.52zM1.65 11.561c0.383 0.078 0.629 0.373 0.54 0.777-0.090 0.406-0.439 0.576-0.821 0.498s-0.63-0.371-0.54-0.777c0.089-0.404 0.439-0.576 0.821-0.498z"></path>
<path d="M2.625 10.621l-0.763-0.211c-0.235-0.065-0.392 0.013-0.472 0.231-0.085 0.231 0.058 0.439 0.283 0.501l0.69 0.19-0.080 0.218-1.273-0.351 0.078-0.21 0.136 0.038 0.021-0.056c-0.072-0.099-0.090-0.262-0.026-0.436 0.117-0.318 0.374-0.439 0.679-0.354l0.809 0.223-0.080 0.218z"></path>
<path d="M2.695 8.943c-0.234-0.106-0.496-0.079-0.607 0.179-0.102 0.237 0.017 0.451 0.285 0.573 0.263 0.119 0.499 0.066 0.601-0.171 0.111-0.259-0.047-0.476-0.279-0.581v0zM2.189 8.476l1.156 0.525c0.34 0.154 0.47 0.465 0.319 0.817-0.132 0.309-0.349 0.451-0.605 0.378l0.086-0.201c0.16 0.030 0.267-0.071 0.345-0.253 0.107-0.249 0.003-0.431-0.241-0.542l-0.097-0.044-0.023 0.053c0.057 0.103 0.085 0.253 0.007 0.435-0.143 0.333-0.495 0.416-0.85 0.255-0.357-0.162-0.535-0.486-0.393-0.819 0.081-0.189 0.207-0.269 0.32-0.296l0.022-0.053-0.13-0.059 0.084-0.196z"></path>
<path d="M2.852 8.098l0.374-0.661c-0.152-0.070-0.339-0.030-0.448 0.163-0.117 0.207-0.056 0.39 0.075 0.497v0zM3.5 7.329l-0.493 0.872c0.276 0.147 0.509 0.116 0.642-0.12 0.091-0.161 0.077-0.295-0.013-0.39l0.111-0.195c0.175 0.146 0.23 0.397 0.070 0.68-0.202 0.356-0.576 0.409-0.927 0.211s-0.474-0.537-0.278-0.884c0.193-0.341 0.537-0.362 0.822-0.21l0.066 0.037z"></path>
<path d="M3.007 6.871l0.138-0.193 1.126 0.301 0.065-0.090-0.691-0.909 0.14-0.195 0.809 1.096-0.25 0.349z"></path>
<path d="M5.129 6.178l-0.142 0.175-1.026-0.816 0.141-0.175 1.026 0.816zM3.691 5.329l-0.187-0.149 0.15-0.186 0.187 0.149-0.15 0.186z"></path>
<path d="M4.872 4.55l0.148 0.134-0.217 0.246 0.552 0.5c0.102 0.092 0.191 0.096 0.307-0.035l0.063-0.072 0.152 0.137-0.067 0.075c-0.186 0.211-0.364 0.274-0.577 0.080l-0.576-0.522-0.149 0.168-0.148-0.134 0.149-0.168-0.303-0.274 0.145-0.165 0.303 0.274 0.217-0.246z"></path>
<path d="M6.558 5.373l-0.249-0.653-1.227-0.477 0.171-0.163 0.887 0.351 0.047-0.045-0.335-0.878 0.167-0.16 0.7 1.871z"></path>
</symbol>
<symbol id="icon-moon" viewBox="0 0 26 32">
<title>moon</title>
<path d="M17.242 31.379c7.813-4.639 10.461-14.713 5.905-22.605s-14.605-10.634-22.529-6.188l16.624 28.793zM0.229 2.328c8.151-4.706 18.573-1.913 23.279 6.238s1.913 18.573-6.238 23.279l-0.18 0.104-17.042-29.517 0.18-0.104z"></path>
</symbol>
<symbol id="icon-triangle" viewBox="0 0 27 32">
<title>triangle</title>
<path d="M0.885 17.609l23.553 13.598 1.822-30.352-25.375 16.754zM24.831 31.937l-24.775-14.304 26.691-17.623-1.916 31.927z"></path>
</symbol>
<symbol id="icon-logo" viewBox="0 0 48 32">
<title>logo</title>
<path d="M1.508 5.27h9.902v-3.878h-9.902v3.878zM2.114 1.998h8.69v2.668h-8.69v-2.668z"></path>
<path d="M1.508 15.086h9.902v-3.878h-9.902v3.878zM2.114 11.814h8.69v2.666h-8.69v-2.666z"></path>
<path d="M18.544 1l-6.038 14.086h12.074l-6.038-14.086zM18.544 2.538l5.118 11.944h-10.238l5.118-11.944z"></path>
<path d="M29.7 1.392c-3.242 0-5.88 2.652-5.88 5.912s2.638 5.912 5.88 5.912c3.242 0 5.88-2.652 5.88-5.912s-2.638-5.912-5.88-5.912zM29.7 12.61c-2.908 0-5.274-2.38-5.274-5.306s2.366-5.308 5.274-5.308c2.908 0 5.276 2.38 5.276 5.308s-2.366 5.306-5.276 5.306z"></path>
<path d="M34.622 1.392l12.114 14.214v-14.214h-12.114zM35.934 1.998h10.196v11.964l-10.196-11.964z"></path>
<path d="M8.084 29.068h-4.084v-1.456h3.994v-1.932h-3.994v-1.34h4.084v-1.934h-6.3v8.594h6.3v-1.932zM18.356 22.406h-2.796l-3.234 8.594h2.512l0.426-1.238h3.39l0.424 1.238h2.512l-3.234-8.594zM15.868 27.83l1.096-3.234 1.082 3.234h-2.178zM31.666 27.842c0.472-0.164 0.876-0.462 1.212-0.896s0.502-0.994 0.502-1.682c0-0.826-0.266-1.508-0.798-2.050s-1.262-0.812-2.19-0.812h-4.304v8.594h2.216v-2.886h1.134l1.442 2.886h2.538l-1.752-3.158zM28.304 26.182v-1.842h1.752c0.31 0 0.564 0.082 0.766 0.244s0.302 0.386 0.302 0.67c0 0.292-0.1 0.52-0.302 0.684s-0.458 0.246-0.766 0.246h-1.752zM46.46 22.406h-2.23v4.73l-3.48-4.73h-2.28v8.594h2.216v-4.974l3.634 4.974h2.14v-8.594z"></path>
</symbol>
</defs>
</svg>
